<?xml version="1.0" encoding="UTF-8" standalone="no"?>
<svg
   xmlns:dc="http://purl.org/dc/elements/1.1/"
   xmlns:cc="http://creativecommons.org/ns#"
   xmlns:rdf="http://www.w3.org/1999/02/22-rdf-syntax-ns#"
   xmlns:svg="http://www.w3.org/2000/svg"
   xmlns="http://www.w3.org/2000/svg"
   xmlns:sodipodi="http://sodipodi.sourceforge.net/DTD/sodipodi-0.dtd"
   xmlns:inkscape="http://www.inkscape.org/namespaces/inkscape"
   width="41"
   height="41"
   viewBox="0 0 10.847917 10.847917"
   version="1.1"
   id="svg8"
   inkscape:version="1.0.1 (3bc2e813f5, 2020-09-07)"
   sodipodi:docname="puntero.svg">
  <defs
     id="defs2" />
  <sodipodi:namedview
     id="base"
     pagecolor="#ffffff"
     bordercolor="#666666"
     borderopacity="1.0"
     inkscape:pageopacity="0.0"
     inkscape:pageshadow="2"
     inkscape:zoom="6.8397252"
     inkscape:cx="30.291262"
     inkscape:cy="36.349515"
     inkscape:document-units="px"
     inkscape:current-layer="layer1"
     inkscape:document-rotation="0"
     showgrid="false"
     inkscape:window-width="1366"
     inkscape:window-height="705"
     inkscape:window-x="-8"
     inkscape:window-y="-8"
     inkscape:window-maximized="1"
     units="px" />
  <metadata
     id="metadata5">
    <rdf:RDF>
      <cc:Work
         rdf:about="">
        <dc:format>image/svg+xml</dc:format>
        <dc:type
           rdf:resource="http://purl.org/dc/dcmitype/StillImage" />
        <dc:title></dc:title>
      </cc:Work>
    </rdf:RDF>
  </metadata>
  <g
     inkscape:label="Capa 1"
     inkscape:groupmode="layer"
     id="layer1">
    <path
       d="M 5.9351762,9.4234116 C 5.7083353,9.519756 5.436126,9.4354584 5.3317791,9.2347372 L 4.342752,7.3319345 3.2040096,8.1428336 c -0.077126,0.056201 -0.1723991,0.088315 -0.2812828,0.088315 A 0.45368213,0.40143514 0 0 1 2.4690446,7.8297142 V 1.8081869 A 0.45368213,0.40143514 0 0 1 2.9227268,1.4067518 c 0.1088837,0 0.2132305,0.03613 0.2903565,0.09233 l 0.00454,-0.00402 5.2128079,3.8698412 C 8.6255145,5.5094197 8.6481986,5.762324 8.4894102,5.9309267 8.4213572,6.0031847 8.3260846,6.0513573 8.2308114,6.0674142 L 6.7971792,6.3163037 7.7952799,8.2150919 c 0.1179579,0.2007175 0.00907,0.4375642 -0.2177675,0.5298944 z"
       id="path1009"
       style="stroke-width:0.426759" />
  </g>
</svg>
